<?xml version="1.0"?>
<svg xmlns:rdf="http://www.w3.org/1999/02/22-rdf-syntax-ns#" xmlns="http://www.w3.org/2000/svg" xmlns:cc="http://creativecommons.org/ns#" xmlns:xlink="http://www.w3.org/1999/xlink" xmlns:dc="http://purl.org/dc/elements/1.1/" xmlns:svg="http://www.w3.org/2000/svg" id="svg2" viewBox="0 0 900 900" version="1.1">
  <title id="title3047">community</title>
  <defs id="defs4">
    <radialGradient id="radialGradient3045" gradientUnits="userSpaceOnUse" cy="607.9" cx="452.55" gradientTransform="matrix(.79016 .10775 -.13511 .99083 177.1 -43.188)" r="450">
      <stop id="stop3041" stop-color="#ff9bff" offset="0"/>
      <stop id="stop3043" stop-color="#60c" offset="1"/>
    </radialGradient>
  </defs>
  <g id="layer1" transform="translate(0 -152.36)">
    <path id="path3898" opacity=".82743" stroke-width="0" fill="url(#radialGradient3045)" d="m450 152.36c-41.215 0-74.65 28.079-74.65 62.718s33.435 62.718 74.65 62.718 74.619-28.079 74.619-62.718-33.403-62.718-74.619-62.718zm-2.8919 128c-3.2057 0-6.3673 0.20731-9.4701 0.53532 3.4235-0.0837 6.85-0.11287 10.296-0.11287 5.405 0 10.796 0.105 16.144 0.30992-3.6574-0.46015-7.3816-0.73256-11.186-0.73256h-5.7838zm0.82631 18.342c-38.693 0-75.902 5.6405-110.66 16.004l-0.85816 0.4226c-25.266 12.941-45.156 27.33-53.803 38.008-14.72 2.8532-35.125 10.327-56.44 21.244l-5.0212 2.564c-4.536 2.3232-8.8738 4.7125-13.03 7.1001-36.135 30.66-64.813 68.174-83.357 110.19-1.7449 10.272-2.7332 22.238-2.7332 35.022v5.1279c0 33.426 6.8555 61.183 16.017 67.959-9.1696 6.7552-16.017 34.541-16.017 67.987v5.1279c0 12.818 0.97973 24.816 2.7332 35.106-0.39558 1.8593-0.69883 3.7493-0.92159 5.635 13.691 31.701 33.147 60.87 57.203 86.526 10.208 8.0587 24.068 16.833 40.106 25.048l5.0212 2.5639c21.315 10.917 41.72 18.391 56.44 21.244 8.6392 10.68 28.523 25.06 53.803 38.008l5.0216 2.5639c12.051 6.1726 23.777 11.26 34.385 15.017 23.26 4.3595 47.384 6.6493 72.107 6.6493 17.752 0 35.211-1.1851 52.246-3.4656 1.3185-0.88342 2.6261-1.8069 3.8772-2.7611 10.922-3.7978 23.112-9.0311 35.625-15.44l5.0212-2.5639c25.215-12.915 45.096-27.252 53.771-37.924 10.254 4.5878 41.67-4.0786 75.35-21.329l5.0209-2.5639c9.6709-4.9532 18.545-10.1 26.313-15.186 30.969-30.329 55.189-66.148 70.614-105.63 1.3972-9.4436 2.1928-20.157 2.1928-31.5v-5.1279c-0.00003-33.446-6.8158-61.232-15.985-67.987 9.1614-6.7755 15.985-34.532 15.985-67.959v-5.1279c-0.00003-7.0803-0.28675-13.884-0.85809-20.314-19.242-51.188-53.239-96.389-97.531-131.63-0.24324-0.12518-0.48691-0.24132-0.73104-0.36631l-5.0209-2.564c-33.684-17.252-65.1-25.892-75.35-21.3-8.6748-10.672-28.556-25.037-53.771-37.952l-5.0212-2.5639c-3.8779-1.9862-7.715-3.826-11.504-5.5787-25.757-5.4078-52.621-8.2835-80.243-8.2835zm-78.432 40.995c-0.54967 3.3356-0.82631 6.7526-0.82631 10.228v74.692c0 5.8261 1.8682 13.96 5.0212 23.554 22.229-8.2798 46.636-12.848 72.235-12.848 28.368 0 55.253 5.6126 79.354 15.665 3.7212-10.814 6.0066-19.991 6.0066-26.372v-74.805c25.588 12.336 49.089 19.39 61.875 19.075 1.1608-0.0302 2.2315-0.10174 3.2096-0.25365 0.48888-0.0759 0.9574-0.17422 1.3983-0.28164 0.73628-0.17933 1.4045-0.40541 2.0022-0.6762 0.18397 0.22446 0.34796 0.4487 0.54016 0.6762 0.42643 0.50442 0.82926 1.002 1.303 1.5215 0.94752 1.039 2.0156 2.1472 3.1462 3.2401 10.177 9.8364 27.56 21.677 48.718 32.514l5.0531 2.5639c2.6415 1.353 5.2447 2.6432 7.8494 3.8882-3.5306 1.2457-6.9995 2.7423-10.392 4.4798l-72.902 37.36c-6.0204 3.0834-13.509 9.003-21.865 16.736 39.875 27.768 66.799 69.622 71.409 117.15 13.828-2.5475 25.05-5.513 31.779-8.9597l72.871-37.36c0.0382-0.021 0.0899-0.0379 0.12819-0.0563 0.75115 25.827 5.6299 47.417 12.331 57.083 0.60836 0.87755 1.2059 1.6632 1.8434 2.3386 0.31904 0.33763 0.6281 0.64479 0.95324 0.92977 0.24236 0.21333 0.51299 0.4084 0.7626 0.59167-0.24966 0.18234-0.51997 0.35099-0.7626 0.56349-0.32593 0.28494-0.63467 0.59215-0.95324 0.92977-0.63745 0.67539-1.235 1.461-1.8434 2.3386-6.7007 9.6656-11.579 31.256-12.331 57.083-0.0382-0.021-0.0899-0.0376-0.12819-0.0563l-72.871-37.36c-6.7294-3.4466-17.952-6.4137-31.779-8.9597-4.602 47.541-31.527 89.379-71.409 117.15 8.3518 7.7283 15.845 13.653 21.865 16.736l72.902 37.36c3.3923 1.7375 6.8611 3.2342 10.392 4.4798-2.6048 1.245-5.2079 2.5634-7.8494 3.9164l-5.0531 2.5358c-21.158 10.837-38.541 22.706-48.718 32.542-1.1306 1.0929-2.1987 2.173-3.1462 3.212-0.47377 0.51952-0.8766 1.017-1.303 1.5214-0.20031 0.2383-0.38013 0.46928-0.57201 0.70439-0.59305-0.2675-1.241-0.52674-1.9703-0.70439-0.44092-0.1074-0.90944-0.2058-1.3983-0.28164-0.97809-0.15165-2.0488-0.22477-3.2096-0.25365-12.786-0.31515-36.287 6.7382-61.875 19.075v-74.805c0-6.3796-2.2584-15.566-5.9747-26.372-24.109 10.061-51.005 15.694-79.386 15.694-25.599 0-50.005-4.568-72.235-12.848-3.1468 9.5806-5.0212 17.704-5.0212 23.526v74.692c0 3.475 0.27595 6.8921 0.82631 10.228-2.518-1.3786-5.1129-2.7325-7.7542-4.0854l-4.9894-2.5921c-21.159-10.837-41.432-18.287-56.123-21.188-0.10831-0.0241-0.20702-0.0352-0.31868-0.056-0.19711-0.24553-0.39296-0.48351-0.60387-0.73258-0.42647-0.50442-0.86083-1.002-1.3349-1.5215-0.9472-1.039-1.9835-2.119-3.114-3.212-10.177-9.8364-27.591-21.705-48.75-32.542l-5.0528-2.5358c-2.6419-1.353-5.245-2.6714-7.8494-3.9163 3.5306-1.2458 6.9995-2.7424 10.392-4.4798l72.902-37.36c5.1701-2.6479 11.448-7.3818 18.401-13.552-42.005-27.408-70.717-70.03-75.953-118.76-10.144 2.1714-18.361 4.6272-23.739 7.3819l-72.934 37.36c-0.0394 0.021-0.0557 0.0379-0.0987 0.0563-0.75106-25.827-5.5978-47.417-12.299-57.083-0.60813-0.87757-1.2061-1.6632-1.8432-2.3386-0.3187-0.33763-0.66007-0.64484-0.98533-0.92977-0.24324-0.21121-0.48429-0.38199-0.73103-0.5635 0.24966-0.18265 0.48855-0.3793 0.73103-0.59171 0.32526-0.28494 0.66663-0.59212 0.98533-0.92976 0.63706-0.67541 1.235-1.461 1.8432-2.3385 6.7008-9.6656 11.548-31.256 12.299-57.083 0.0363 0.021 0.0593 0.0376 0.0987 0.056l72.934 37.36c5.378 2.7547 13.595 5.2094 23.739 7.3819 5.2453-48.725 33.977-91.327 75.985-118.73-6.9745-6.1961-13.25-10.926-18.432-13.58l-72.902-37.36c-3.3923-1.7375-6.8611-3.2342-10.392-4.4798 2.6044-1.245 5.2076-2.5352 7.8494-3.8882l5.0528-2.5639c21.159-10.837 38.573-22.678 48.75-32.514 1.1306-1.0929 2.1668-2.2011 3.114-3.2401 0.47409-0.51953 0.90845-1.017 1.3349-1.5215 0.21024-0.24915 0.40411-0.48692 0.60387-0.73256 0.10831-0.0241 0.20703-0.0346 0.31868-0.0562 14.691-2.9003 34.964-10.351 56.123-21.188l4.9894-2.5921c2.6412-1.353 5.2361-2.7067 7.7542-4.0854zm-294.15 6.5367c-25.406-0.0648-50.694 12.238-64.862 34.007-20.608 31.665-9.9168 71.404 23.898 88.724 28.853 14.778 65.209 8.4616 88.061-13.383 5.3028-8.9861 11.062-17.735 17.256-26.203 10.38-28.681-1.5863-60.204-30.699-75.115-10.567-5.4124-22.107-8.0007-33.655-8.03zm749.3 0c-11.548 0.0301-23.119 2.6176-33.686 8.03-33.815 17.319-44.506 57.031-23.898 88.695 20.608 31.665 64.734 43.325 98.548 26.006 33.815-17.319 44.506-57.059 23.898-88.724-14.168-21.769-39.456-34.072-64.862-34.007zm-756.59 381.52c-11.548 0.0302-23.119 2.6176-33.686 8.0299-33.815 17.319-44.506 57.031-23.898 88.696 20.607 31.665 64.701 43.297 98.517 25.977 25.153-12.883 37.514-38.147 33.718-63.281-10.678-14.131-20.169-29.05-28.284-44.629-13.393-9.6192-29.846-14.834-46.366-14.792zm763.82 0c-19.692-0.0499-39.282 7.3618-53.707 20.821-5.765 10.496-12.173 20.658-19.131 30.486-8.119 27.655 4.0364 57.121 31.907 71.396 33.815 17.32 77.941 5.6872 98.548-25.977 20.608-31.665 9.9166-71.376-23.898-88.696-10.567-5.4123-22.17-8.0007-33.718-8.0299zm-356.02 203.05c-9.2185 0.61479-18.538 0.9298-27.934 0.9298-8.2216 0-16.383-0.26088-24.47-0.73253-28.121 8.9895-48.114 31.846-48.114 58.633 0 34.639 33.435 62.718 74.65 62.718s74.619-28.079 74.619-62.718c0-26.99-20.292-49.985-48.75-58.83z"/>
  </g>
  <metadata>
    <rdf:RDF>
      <cc:Work>
        <dc:format>image/svg+xml</dc:format>
        <dc:type rdf:resource="http://purl.org/dc/dcmitype/StillImage"/>
        <cc:license rdf:resource="http://creativecommons.org/licenses/publicdomain/"/>
        <dc:publisher>
          <cc:Agent rdf:about="http://openclipart.org/">
            <dc:title>Openclipart</dc:title>
          </cc:Agent>
        </dc:publisher>
        <dc:title>community</dc:title>
        <dc:date>2012-05-04T09:33:29</dc:date>
        <dc:description>brotherhood, clip art, clipart, community, social, unity, </dc:description>
        <dc:source>http://openclipart.org/detail/169840/community-by-netalloy</dc:source>
        <dc:creator>
          <cc:Agent>
            <dc:title>netalloy</dc:title>
          </cc:Agent>
        </dc:creator>
        <dc:subject>
          <rdf:Bag>
            <rdf:li>brotherhood</rdf:li>
            <rdf:li>clip art</rdf:li>
            <rdf:li>clipart</rdf:li>
            <rdf:li>community</rdf:li>
            <rdf:li>social</rdf:li>
            <rdf:li>unity</rdf:li>
          </rdf:Bag>
        </dc:subject>
      </cc:Work>
      <cc:License rdf:about="http://creativecommons.org/licenses/publicdomain/">
        <cc:permits rdf:resource="http://creativecommons.org/ns#Reproduction"/>
        <cc:permits rdf:resource="http://creativecommons.org/ns#Distribution"/>
        <cc:permits rdf:resource="http://creativecommons.org/ns#DerivativeWorks"/>
      </cc:License>
    </rdf:RDF>
  </metadata>
</svg>
